# 3ds Max Wavefront OBJ Exporter v0.97b - (c)2007 guruware
# 作成したファイル : 09.10.2019 14:45:42

mtllib 左カーブ.mtl

#
# object Box005
#

v  31.5494 0.0000 -25.5068
v  11.2263 0.0000 -25.3155
v  11.2263 10.2611 -25.3155
v  31.5494 10.2611 -25.5068
v  48.9468 10.2611 -8.2750
v  49.0244 10.2611 -5.7254
v  49.0244 0.0000 -5.7254
v  48.9468 0.0000 -8.2750
v  48.7138 10.2611 -10.6488
v  48.7138 0.0000 -10.6488
v  48.3254 10.2611 -12.8467
v  48.3254 0.0000 -12.8467
v  47.7818 10.2611 -14.8688
v  47.7818 0.0000 -14.8688
v  47.0828 10.2611 -16.7151
v  47.0828 0.0000 -16.7151
v  46.2284 10.2611 -18.3855
v  46.2284 0.0000 -18.3855
v  45.2188 10.2611 -19.8801
v  45.2188 0.0000 -19.8801
v  44.0538 10.2611 -21.1989
v  44.0538 0.0000 -21.1989
v  42.7334 10.2611 -22.3418
v  42.7334 0.0000 -22.3418
v  41.2578 10.2611 -23.3089
v  41.2578 0.0000 -23.3089
v  39.6267 10.2611 -24.1001
v  39.6267 0.0000 -24.1001
v  37.8404 10.2611 -24.7156
v  37.8404 0.0000 -24.7156
v  35.8987 10.2611 -25.1552
v  35.8987 0.0000 -25.1552
v  33.8017 10.2611 -25.4189
v  33.8017 0.0000 -25.4189
v  1.8222 0.0000 -3.9823
v  1.8222 10.2611 -3.9823
v  0.1892 10.2611 -7.6675
v  0.1892 0.0000 -7.6675
v  12.8593 0.0000 -20.5192
v  28.4724 0.0000 -20.5567
v  30.7248 0.0000 -20.4688
v  32.8218 0.0000 -20.2050
v  34.7634 0.0000 -19.7654
v  36.5498 0.0000 -19.5583
v  38.1808 0.0000 -18.9255
v  39.6564 0.0000 -18.4880
v  40.9768 0.0000 -17.1867
v  42.1418 0.0000 -16.3960
v  43.1514 0.0000 -14.9014
v  44.0058 0.0000 -13.2310
v  44.7048 0.0000 -11.3847
v  45.2484 0.0000 -9.3626
v  45.6368 0.0000 -7.1647
v  45.6942 0.0000 -5.6050
v  45.6942 10.2611 -5.6050
v  12.8593 10.2611 -20.5192
v  28.4724 10.2611 -20.5567
v  30.7248 10.2611 -20.4688
v  32.8218 10.2611 -20.2050
v  34.7634 10.2611 -19.7654
v  36.5498 10.2611 -19.5583
v  38.1808 10.2611 -18.9255
v  39.6564 10.2611 -18.4880
v  40.9768 10.2611 -17.1867
v  42.1418 10.2611 -16.3960
v  43.1514 10.2611 -14.9014
v  44.0058 10.2611 -13.2310
v  44.7048 10.2611 -11.3847
v  45.2484 10.2611 -9.3626
v  45.6368 10.2611 -7.1647
# 70 vertices

vn 0.0071 0.0000 -1.0000
vn -0.0045 0.0000 -1.0000
vn 0.9912 0.0000 -0.1321
vn 0.7351 0.0000 0.6780
vn 0.9618 0.0000 -0.2736
vn 0.9083 0.0000 -0.4183
vn 0.8314 0.0000 -0.5557
vn 0.7368 0.0000 -0.6761
vn 0.6333 0.0000 -0.7739
vn 0.5293 0.0000 -0.8484
vn 0.4312 0.0000 -0.9023
vn 0.3422 0.0000 -0.9396
vn 0.2636 0.0000 -0.9646
vn 0.1951 0.0000 -0.9808
vn 0.1357 0.0000 -0.9908
vn 0.0842 0.0000 -0.9965
vn 0.0395 0.0000 -0.9992
vn -0.7348 0.0000 0.6783
vn 0.0000 -1.0000 -0.0000
vn 0.0173 0.0000 0.9998
vn -0.0000 1.0000 -0.0000
vn 0.0000 1.0000 -0.0000
vn -0.0000 1.0000 0.0000
vn 0.0000 1.0000 0.0000
vn 0.0012 0.0000 1.0000
vn -0.0088 0.0000 1.0000
vn -0.9771 0.0000 0.2130
vn -0.9971 0.0000 0.0765
vn -0.9083 0.0000 0.4183
vn -0.8314 0.0000 0.5557
vn -0.7368 0.0000 0.6761
vn -0.6333 0.0000 0.7739
vn -0.4497 0.0000 0.8932
vn -0.3695 0.0000 0.9292
vn -0.2875 0.0000 0.9578
vn -0.1620 0.0000 0.9868
vn -0.1196 0.0000 0.9928
vn -0.0818 0.0000 0.9966
vn -0.0842 0.0000 0.9965
vn -0.0395 0.0000 0.9992
vn -0.6089 0.0000 -0.7933
vn 0.5839 0.0000 0.8118
# 42 vertex normals

vt 0.4832 0.0000 0.0000
vt 1.0000 0.0000 0.0000
vt 1.0000 1.0000 0.0000
vt 0.4832 1.0000 0.0000
vt -2.4355 1.0000 0.0000
vt -2.6440 1.0000 0.0000
vt -2.6440 -0.0000 0.0000
vt -2.4355 -0.0000 0.0000
vt -2.2270 1.0000 0.0000
vt -2.2270 -0.0000 0.0000
vt -2.0185 1.0000 0.0000
vt -2.0185 -0.0000 0.0000
vt -1.8101 1.0000 0.0000
vt -1.8101 -0.0000 0.0000
vt -1.6016 1.0000 0.0000
vt -1.6016 -0.0000 0.0000
vt -1.3931 1.0000 0.0000
vt -1.3931 -0.0000 0.0000
vt -1.1846 1.0000 0.0000
vt -1.1846 -0.0000 0.0000
vt -0.9761 1.0000 0.0000
vt -0.9761 -0.0000 0.0000
vt -0.7677 1.0000 0.0000
vt -0.7677 -0.0000 0.0000
vt -0.5592 1.0000 0.0000
vt -0.5592 -0.0000 0.0000
vt -0.3507 1.0000 0.0000
vt -0.3507 -0.0000 0.0000
vt -0.1422 1.0000 0.0000
vt -0.1422 -0.0000 0.0000
vt 0.0662 1.0000 0.0000
vt 0.0662 -0.0000 0.0000
vt 0.2747 1.0000 0.0000
vt 0.2747 -0.0000 0.0000
vt 0.2193 0.0000 0.0000
vt 0.2193 1.0000 0.0000
vt 0.0000 1.0000 0.0000
vt 0.0000 0.0000 0.0000
vt 1.0000 0.7807 0.0000
vt 0.6087 0.7807 0.0000
vt 0.4209 0.9956 0.0000
vt 0.3629 0.9822 0.0000
vt 0.3092 0.9600 0.0000
vt 0.2599 0.9289 0.0000
vt 0.2148 0.8889 0.0000
vt 0.1740 0.8400 0.0000
vt 0.1374 0.7822 0.0000
vt 0.5465 0.7762 0.0000
vt 0.4894 0.7629 0.0000
vt 0.1052 0.7156 0.0000
vt 0.4417 0.7407 0.0000
vt 0.4021 0.7096 0.0000
vt 0.3706 0.6696 0.0000
vt 0.3470 0.6207 0.0000
vt 0.3315 0.5629 0.0000
vt 0.3241 0.4962 0.0000
vt 0.3247 0.4207 0.0000
vt 0.3333 0.3362 0.0000
vt 0.3500 0.2429 0.0000
vt 0.3747 0.1407 0.0000
vt 0.4074 0.0296 0.0000
vt 0.4047 0.0000 0.0000
vt 0.0773 0.6400 0.0000
vt 0.0537 0.5556 0.0000
vt 0.0344 0.4622 0.0000
vt 0.0193 0.3600 0.0000
vt 0.0086 0.2489 0.0000
vt 0.0021 0.1289 0.0000
vt 0.5953 0.0000 0.0000
vt 0.5953 1.0000 0.0000
vt 0.9979 0.1289 0.0000
vt 0.9914 0.2489 0.0000
vt 0.9807 0.3600 0.0000
vt 0.9656 0.4622 0.0000
vt 0.9463 0.5556 0.0000
vt 0.9227 0.6400 0.0000
vt 0.8948 0.7156 0.0000
vt 0.8626 0.7822 0.0000
vt 0.8260 0.8400 0.0000
vt 0.7852 0.8889 0.0000
vt 0.7401 0.9289 0.0000
vt 0.6908 0.9600 0.0000
vt 0.6371 0.9822 0.0000
vt 0.5791 0.9956 0.0000
vt 0.5168 1.0000 0.0000
vt 0.0000 0.7807 0.0000
vt 0.3913 0.7807 0.0000
vt 0.4535 0.7762 0.0000
vt 0.5107 0.7629 0.0000
vt 0.5586 0.7407 0.0000
vt 0.5987 0.7096 0.0000
vt 0.6309 0.6696 0.0000
vt 0.6553 0.6207 0.0000
vt 0.6718 0.5629 0.0000
vt 0.6804 0.4962 0.0000
vt 0.6812 0.4207 0.0000
vt 0.6741 0.3362 0.0000
vt 0.6592 0.2429 0.0000
vt 0.6364 0.1407 0.0000
vt 0.6058 0.0296 0.0000
vt 0.8745 0.0000 0.0000
vt 0.8745 1.0000 0.0000
vt -2.2784 -0.0000 0.0000
vt -2.2784 1.0000 0.0000
# 104 texture coords

g Box005
usemtl wire_028089177
s 2
f 1/1/1 2/2/2 3/3/2 
f 3/3/2 4/4/1 1/1/1 
f 5/5/3 6/6/4 7/7/4 
f 7/7/4 8/8/3 5/5/3 
f 9/9/5 5/5/3 8/8/3 
f 8/8/3 10/10/5 9/9/5 
f 11/11/6 9/9/5 10/10/5 
f 10/10/5 12/12/6 11/11/6 
f 13/13/7 11/11/6 12/12/6 
f 12/12/6 14/14/7 13/13/7 
f 15/15/8 13/13/7 14/14/7 
f 14/14/7 16/16/8 15/15/8 
f 17/17/9 15/15/8 16/16/8 
f 16/16/8 18/18/9 17/17/9 
f 19/19/10 17/17/9 18/18/9 
f 18/18/9 20/20/10 19/19/10 
f 21/21/11 19/19/10 20/20/10 
f 20/20/10 22/22/11 21/21/11 
f 23/23/12 21/21/11 22/22/11 
f 22/22/11 24/24/12 23/23/12 
f 25/25/13 23/23/12 24/24/12 
f 24/24/12 26/26/13 25/25/13 
f 27/27/14 25/25/13 26/26/13 
f 26/26/13 28/28/14 27/27/14 
f 29/29/15 27/27/14 28/28/14 
f 28/28/14 30/30/15 29/29/15 
f 31/31/16 29/29/15 30/30/15 
f 30/30/15 32/32/16 31/31/16 
f 33/33/17 31/31/16 32/32/16 
f 32/32/16 34/34/17 33/33/17 
f 4/4/1 33/33/17 34/34/17 
f 34/34/17 1/1/1 4/4/1 
s 4
f 35/35/18 36/36/18 37/37/18 
f 37/37/18 38/38/18 35/35/18 
s 1
f 39/39/19 2/3/19 1/4/19 
f 40/40/19 39/39/19 1/4/19 
f 1/4/19 34/41/19 32/42/19 
f 40/40/19 1/4/19 32/42/19 
f 32/42/19 30/43/19 28/44/19 
f 28/44/19 26/45/19 24/46/19 
f 32/42/19 28/44/19 24/46/19 
f 40/40/19 32/42/19 24/46/19 
f 40/40/19 24/46/19 22/47/19 
f 41/48/19 40/40/19 22/47/19 
f 42/49/19 41/48/19 22/47/19 
f 42/49/19 22/47/19 20/50/19 
f 43/51/19 42/49/19 20/50/19 
f 44/52/19 43/51/19 20/50/19 
f 45/53/19 44/52/19 20/50/19 
f 46/54/19 45/53/19 20/50/19 
f 47/55/19 46/54/19 20/50/19 
f 48/56/19 47/55/19 20/50/19 
f 49/57/19 48/56/19 20/50/19 
f 50/58/19 49/57/19 20/50/19 
f 51/59/19 50/58/19 20/50/19 
f 52/60/19 51/59/19 20/50/19 
f 53/61/19 52/60/19 20/50/19 
f 54/62/19 53/61/19 20/50/19 
f 20/50/19 18/63/19 16/64/19 
f 16/64/19 14/65/19 12/66/19 
f 12/66/19 10/67/19 8/68/19 
f 16/64/19 12/66/19 8/68/19 
f 20/50/19 16/64/19 8/68/19 
f 54/62/19 20/50/19 8/68/19 
f 7/38/19 54/62/19 8/68/19 
s 2
f 54/69/20 7/2/4 6/3/4 
f 6/3/4 55/70/20 54/69/20 
s 1
f 55/69/21 6/2/22 5/71/21 
f 5/71/21 9/72/22 11/73/22 
f 11/73/22 13/74/22 15/75/22 
f 5/71/21 11/73/22 15/75/22 
f 15/75/22 17/76/22 19/77/23 
f 5/71/21 15/75/22 19/77/23 
f 21/78/23 23/79/22 25/80/23 
f 25/80/23 27/81/22 29/82/22 
f 29/82/22 31/83/22 33/84/23 
f 25/80/23 29/82/22 33/84/23 
f 4/85/23 3/37/24 56/86/24 
f 33/84/23 4/85/23 56/86/24 
f 25/80/23 33/84/23 56/86/24 
f 21/78/23 25/80/23 56/86/24 
f 21/78/23 56/86/24 57/87/24 
f 21/78/23 57/87/24 58/88/23 
f 21/78/23 58/88/23 59/89/23 
f 19/77/23 21/78/23 59/89/23 
f 19/77/23 59/89/23 60/90/23 
f 19/77/23 60/90/23 61/91/23 
f 19/77/23 61/91/23 62/92/23 
f 19/77/23 62/92/23 63/93/23 
f 19/77/23 63/93/23 64/94/23 
f 19/77/23 64/94/23 65/95/23 
f 19/77/23 65/95/23 66/96/23 
f 19/77/23 66/96/23 67/97/23 
f 19/77/23 67/97/23 68/98/23 
f 19/77/23 68/98/23 69/99/23 
f 19/77/23 69/99/23 70/100/21 
f 5/71/21 19/77/23 70/100/21 
f 55/69/21 5/71/21 70/100/21 
s 8
f 39/101/25 40/1/26 57/4/26 
f 57/4/26 56/102/25 39/101/25 
f 53/10/27 54/103/28 55/104/28 
f 55/104/28 70/9/27 53/10/27 
f 69/11/29 52/12/29 53/10/27 
f 53/10/27 70/9/27 69/11/29 
f 68/13/30 51/14/30 52/12/29 
f 52/12/29 69/11/29 68/13/30 
f 67/15/31 50/16/31 51/14/30 
f 51/14/30 68/13/30 67/15/31 
f 66/17/32 49/18/32 50/16/31 
f 50/16/31 67/15/31 66/17/32 
f 65/19/33 48/20/33 49/18/32 
f 49/18/32 66/17/32 65/19/33 
f 64/21/34 47/22/34 48/20/33 
f 48/20/33 65/19/33 64/21/34 
f 63/23/35 46/24/35 47/22/34 
f 47/22/34 64/21/34 63/23/35 
f 62/25/36 45/26/36 46/24/35 
f 46/24/35 63/23/35 62/25/36 
f 61/27/37 44/28/37 45/26/36 
f 45/26/36 62/25/36 61/27/37 
f 60/29/38 43/30/38 44/28/37 
f 44/28/37 61/27/37 60/29/38 
f 59/31/39 42/32/39 43/30/38 
f 43/30/38 60/29/38 59/31/39 
f 58/33/40 41/34/40 42/32/39 
f 42/32/39 59/31/39 58/33/40 
f 57/4/26 40/1/26 41/34/40 
f 41/34/40 58/33/40 57/4/26 
s off
f 3/37/41 2/38/41 38/38/41 
f 38/38/41 37/37/41 3/37/41 
f 2/38/19 39/35/19 35/35/19 
f 35/35/19 38/38/19 2/38/19 
f 39/35/42 56/36/42 36/36/42 
f 36/36/42 35/35/42 39/35/42 
f 56/36/24 3/37/24 37/37/24 
f 37/37/24 36/36/24 56/36/24 
# 136 faces

