# 3ds Max Wavefront OBJ Exporter v0.97b - (c)2007 guruware
# 作成したファイル : 04.10.2019 14:42:59

mtllib カーブ.mtl

#
# object Box006
#

v  -53.9951 0.0000 32.5978
v  36.3927 0.0000 32.5978
v  36.3927 8.8213 32.5978
v  -53.9951 8.8213 32.5978
v  39.6746 8.8213 32.3015
v  39.6746 0.0000 32.3015
v  42.4516 8.8213 31.4128
v  42.4516 0.0000 31.4128
v  44.7237 8.8213 29.9315
v  44.7237 0.0000 29.9315
v  46.4909 8.8213 27.8576
v  46.4909 0.0000 27.8576
v  47.7531 8.8213 25.1913
v  47.7531 0.0000 25.1913
v  48.5105 8.8213 21.9324
v  48.5105 0.0000 21.9324
v  48.7629 8.8213 18.0811
v  48.7629 0.0000 18.0811
v  45.2318 0.0000 18.0811
v  45.2318 8.8213 18.0811
v  44.6832 0.0000 20.4416
v  43.4209 0.0000 23.1080
v  41.6538 0.0000 25.1818
v  39.3817 0.0000 26.6631
v  36.6047 0.0000 27.5518
v  33.3228 0.0000 27.8481
v  -53.9951 0.0000 27.8481
v  -53.9951 8.8213 27.8481
v  33.3228 8.8213 27.8481
v  36.6047 8.8213 27.5518
v  39.3817 8.8213 26.6631
v  44.6832 8.8213 20.4416
v  43.4209 8.8213 23.1080
v  41.6538 8.8213 25.1818
# 34 vertices

vn 0.0000 0.0000 1.0000
vn 0.0162 0.0000 0.9999
vn 0.0733 0.0000 0.9973
vn 0.1713 0.0000 0.9852
vn 0.3091 0.0000 0.9510
vn 0.5000 0.0000 0.8660
vn 0.7328 0.0000 0.6805
vn 0.9295 0.0000 0.3687
vn 0.9837 0.0000 0.1797
vn -0.0000 -0.0000 -1.0000
vn 0.0000 -0.0000 -1.0000
vn -0.0000 0.0000 -1.0000
vn 0.0000 -1.0000 -0.0000
vn -1.0000 0.0000 -0.0000
vn 0.0000 1.0000 -0.0000
vn -0.0162 0.0000 -0.9999
vn 0.0000 0.0000 -1.0000
vn -0.0733 0.0000 -0.9973
vn -0.1713 0.0000 -0.9852
vn -0.3091 0.0000 -0.9510
vn -0.5000 0.0000 -0.8660
vn -0.7328 0.0000 -0.6805
vn -0.8394 0.0000 -0.5435
# 23 vertex normals

vt 0.0000 0.0000 0.0000
vt 0.8796 0.0000 0.0000
vt 0.8796 1.0000 0.0000
vt 0.0000 1.0000 0.0000
vt -0.9575 1.0000 0.0000
vt -1.2837 1.0000 0.0000
vt -1.2837 -0.0000 0.0000
vt -0.9575 -0.0000 0.0000
vt -0.6312 1.0000 0.0000
vt -0.6312 -0.0000 0.0000
vt -0.3050 1.0000 0.0000
vt -0.3050 -0.0000 0.0000
vt 0.0213 1.0000 0.0000
vt 0.0213 -0.0000 0.0000
vt 0.3475 1.0000 0.0000
vt 0.3475 -0.0000 0.0000
vt 0.6738 1.0000 0.0000
vt 0.6738 -0.0000 0.0000
vt 1.0000 1.0000 0.0000
vt 1.0000 0.0000 0.0000
vt 0.0344 0.0000 0.0000
vt 0.0344 1.0000 0.0000
vt 0.0025 0.7347 0.0000
vt 0.0397 0.8374 0.0000
vt 0.0520 0.6537 0.0000
vt 0.0692 0.5109 0.0000
vt 0.0913 0.4088 0.0000
vt 0.0098 0.5102 0.0000
vt 0.1183 0.3476 0.0000
vt 0.0221 0.3265 0.0000
vt 0.1503 0.3272 0.0000
vt 0.0393 0.1837 0.0000
vt 0.0614 0.0816 0.0000
vt 0.0884 0.0204 0.0000
vt 0.1204 0.0000 0.0000
vt 1.0000 0.3272 0.0000
vt 0.6728 0.0000 0.0000
vt 0.6728 1.0000 0.0000
vt 0.0000 0.3272 0.0000
vt 0.8497 0.3272 0.0000
vt 0.9116 0.0204 0.0000
vt 0.9386 0.0816 0.0000
vt 0.9607 0.1837 0.0000
vt 0.9779 0.3265 0.0000
vt 0.8817 0.3476 0.0000
vt 0.9902 0.5102 0.0000
vt 0.9087 0.4088 0.0000
vt 0.9975 0.7347 0.0000
vt 0.9656 1.0000 0.0000
vt 0.9603 0.8374 0.0000
vt 0.9480 0.6537 0.0000
vt 0.9308 0.5109 0.0000
vt 0.0299 0.0000 0.0000
vt 0.0299 1.0000 0.0000
vt 0.5838 -0.0000 0.0000
vt 0.5838 1.0000 0.0000
# 56 texture coords

g Box006
usemtl wire_087225087
s 2
f 1/1/1 2/2/2 3/3/2 
f 3/3/2 4/4/1 1/1/1 
f 5/5/3 3/6/2 2/7/2 
f 2/7/2 6/8/3 5/5/3 
f 7/9/4 5/5/3 6/8/3 
f 6/8/3 8/10/4 7/9/4 
f 9/11/5 7/9/4 8/10/4 
f 8/10/4 10/12/5 9/11/5 
f 11/13/6 9/11/5 10/12/5 
f 10/12/5 12/14/6 11/13/6 
f 13/15/7 11/13/6 12/14/6 
f 12/14/6 14/16/7 13/15/7 
f 15/17/8 13/15/7 14/16/7 
f 14/16/7 16/18/8 15/17/8 
f 17/19/9 15/17/8 16/18/8 
f 16/18/8 18/20/9 17/19/9 
s 4
f 19/21/10 20/22/11 17/4/10 
f 17/4/10 18/1/12 19/21/10 
s 1
f 19/22/13 18/4/13 16/23/13 
f 21/24/13 19/22/13 16/23/13 
f 22/25/13 21/24/13 16/23/13 
f 23/26/13 22/25/13 16/23/13 
f 24/27/13 23/26/13 16/23/13 
f 24/27/13 16/23/13 14/28/13 
f 25/29/13 24/27/13 14/28/13 
f 25/29/13 14/28/13 12/30/13 
f 26/31/13 25/29/13 12/30/13 
f 26/31/13 12/30/13 10/32/13 
f 10/32/13 8/33/13 6/34/13 
f 26/31/13 10/32/13 6/34/13 
f 26/31/13 6/34/13 2/35/13 
f 27/36/13 26/31/13 2/35/13 
f 1/20/13 27/36/13 2/35/13 
s 8
f 27/37/14 1/20/14 4/19/14 
f 4/19/14 28/38/14 27/37/14 
s 1
f 28/39/15 4/1/15 3/2/15 
f 29/40/15 28/39/15 3/2/15 
f 3/2/15 5/41/15 7/42/15 
f 29/40/15 3/2/15 7/42/15 
f 7/42/15 9/43/15 11/44/15 
f 29/40/15 7/42/15 11/44/15 
f 30/45/15 29/40/15 11/44/15 
f 30/45/15 11/44/15 13/46/15 
f 31/47/15 30/45/15 13/46/15 
f 31/47/15 13/46/15 15/48/15 
f 15/48/15 17/19/15 20/49/15 
f 15/48/15 20/49/15 32/50/15 
f 15/48/15 32/50/15 33/51/15 
f 15/48/15 33/51/15 34/52/15 
f 31/47/15 15/48/15 34/52/15 
s 2
f 26/2/16 27/53/17 28/54/17 
f 28/54/17 29/3/16 26/2/16 
f 30/5/18 25/8/18 26/7/16 
f 26/7/16 29/6/16 30/5/18 
f 31/9/19 24/10/19 25/8/18 
f 25/8/18 30/5/18 31/9/19 
f 34/11/20 23/12/20 24/10/19 
f 24/10/19 31/9/19 34/11/20 
f 33/13/21 22/14/21 23/12/20 
f 23/12/20 34/11/20 33/13/21 
f 32/15/22 21/16/22 22/14/21 
f 22/14/21 33/13/21 32/15/22 
f 19/55/23 21/16/22 32/15/22 
f 32/15/22 20/56/23 19/55/23 
# 64 faces

