# 3ds Max Wavefront OBJ Exporter v0.97b - (c)2007 guruware
# 作成したファイル : 16.10.2019 13:46:15

mtllib レバー右.mtl

#
# object Box007
#

v  -1.9061 0.1811 4.6833
v  -5.9411 -0.2330 -1.7000
v  -6.1989 -0.2330 -2.3655
v  -6.3806 -0.2330 -2.9521
v  -6.4861 -0.2330 -3.4598
v  -6.5154 -0.2330 -3.8887
v  -6.4686 -0.2330 -4.2387
v  -6.3456 -0.2330 -4.5098
v  -6.1465 -0.2330 -4.7021
v  -5.8712 -0.2330 -4.8155
v  -5.5198 -0.2330 -4.8500
v  -5.0923 -0.2330 -4.8057
v  -4.5885 -0.2330 -4.6825
v  -4.0087 -0.2330 -4.4804
v  -3.3526 -0.2330 -4.1995
v  2.9501 0.1811 -0.2832
v  2.9501 0.1811 2.1673
v  2.9358 0.1811 2.5235
v  2.8931 0.1811 2.8519
v  2.8220 0.1811 3.1524
v  2.7224 0.1811 3.4251
v  2.5943 0.1811 3.6700
v  2.4378 0.1811 3.8871
v  2.2528 0.1811 4.0763
v  2.0393 0.1811 4.2377
v  1.7974 0.1811 4.3714
v  1.5270 0.1811 4.4771
v  1.2282 0.1811 4.5551
v  0.9009 0.1811 4.6052
v  0.5451 0.1811 4.6276
v  -1.9061 9.4519 4.6833
v  0.5451 9.4519 4.6276
v  0.9009 9.4519 4.6052
v  1.2282 9.4519 4.5551
v  1.5270 9.4519 4.4771
v  1.7974 9.4519 4.3714
v  2.0393 9.4519 4.2377
v  2.2528 9.4519 4.0763
v  2.4378 9.4519 3.8871
v  2.5943 9.4519 3.6700
v  2.7224 9.4519 3.4251
v  2.8220 9.4519 3.1524
v  2.8931 9.4519 2.8519
v  2.9358 9.4519 2.5235
v  2.9501 9.4519 2.1673
v  2.9501 9.4519 -0.2832
v  -3.3526 9.8660 -4.1995
v  -4.0087 9.8660 -4.4804
v  -4.5885 9.8660 -4.6825
v  -5.0923 9.8660 -4.8057
v  -5.5198 9.8660 -4.8500
v  -5.8712 9.8660 -4.8155
v  -6.1465 9.8660 -4.7021
v  -6.3456 9.8660 -4.5098
v  -6.4686 9.8660 -4.2387
v  -6.5154 9.8660 -3.8887
v  -6.4861 9.8660 -3.4598
v  -6.3806 9.8660 -2.9521
v  -6.1989 9.8660 -2.3655
v  -5.9411 9.8660 -1.7000
# 60 vertices

vn 0.0243 -0.9995 0.0225
vn 0.2550 -0.9619 -0.0988
vn 0.1960 -0.9786 -0.0619
vn 0.1458 -0.9888 -0.0318
vn 0.1065 -0.9943 -0.0093
vn 0.0762 -0.9971 0.0072
vn 0.0531 -0.9984 0.0192
vn 0.0355 -0.9990 0.0279
vn 0.0217 -0.9992 0.0343
vn 0.0103 -0.9992 0.0393
vn 0.0008 -0.9991 0.0431
vn -0.0070 -0.9989 0.0459
vn -0.0133 -0.9988 0.0480
vn -0.0184 -0.9986 0.0494
vn -0.0037 -0.9989 0.0472
vn 0.0260 -0.9993 0.0254
vn 0.0000 -1.0000 -0.0000
vn 0.0255 0.9994 0.0249
vn 0.0000 1.0000 -0.0000
vn 0.0227 0.9994 0.0242
vn -0.1366 0.9378 0.3190
vn -0.0818 0.9694 0.2313
vn -0.0417 0.9855 0.1642
vn -0.0141 0.9931 0.1160
vn 0.0050 0.9967 0.0812
vn 0.0182 0.9983 0.0558
vn 0.0274 0.9989 0.0372
vn 0.0340 0.9992 0.0230
vn 0.0391 0.9992 0.0116
vn 0.0429 0.9991 0.0022
vn 0.0457 0.9989 -0.0054
vn 0.0476 0.9988 -0.0115
vn 0.0489 0.9987 -0.0164
vn 0.0469 0.9989 -0.0024
vn 0.0227 0.0000 0.9997
vn 0.0427 0.0000 0.9991
vn 0.9998 0.0000 0.0200
vn 1.0000 0.0000 -0.0000
vn 0.5278 0.0000 -0.8494
vn 0.4608 0.0000 -0.8875
vn -0.8939 0.0000 0.4484
vn -0.8453 0.0000 0.5343
vn 0.3616 0.0000 -0.9323
vn 0.2836 0.0000 -0.9589
vn 0.1707 0.0000 -0.9853
vn 0.0027 0.0000 -1.0000
vn -0.2419 0.0000 -0.9703
vn -0.5475 0.0000 -0.8368
vn -0.8172 0.0000 -0.5764
vn -0.9612 0.0000 -0.2757
vn -0.9995 0.0000 -0.0323
vn -0.9907 0.0000 0.1362
vn -0.9683 0.0000 0.2499
vn -0.9444 0.0000 0.3287
vn 0.1071 0.0000 0.9942
vn 0.2022 0.0000 0.9793
vn 0.3089 0.0000 0.9511
vn 0.4248 0.0000 0.9053
vn 0.5447 0.0000 0.8386
vn 0.6610 0.0000 0.7504
vn 0.7652 0.0000 0.6438
vn 0.8508 0.0000 0.5255
vn 0.9147 0.0000 0.4041
vn 0.9579 0.0000 0.2872
vn 0.9837 0.0000 0.1799
vn 0.9964 0.0000 0.0845
# 66 vertex normals

vt 1.0000 0.0000 0.0000
vt 1.0000 0.7519 0.0000
vt 0.9985 0.7886 0.0000
vt 0.9940 0.8224 0.0000
vt 0.9865 0.8532 0.0000
vt 0.9760 0.8811 0.0000
vt 0.9625 0.9060 0.0000
vt 0.9460 0.9281 0.0000
vt 0.9264 0.9471 0.0000
vt 0.9039 0.9633 0.0000
vt 0.8784 0.9765 0.0000
vt 0.8499 0.9868 0.0000
vt 0.8183 0.9941 0.0000
vt 0.7838 0.9985 0.0000
vt 0.7463 1.0000 0.0000
vt 0.0000 1.0000 0.0000
vt 0.0000 0.4954 0.0000
vt 0.0029 0.4221 0.0000
vt 0.0117 0.3547 0.0000
vt 0.0264 0.2931 0.0000
vt 0.0469 0.2374 0.0000
vt 0.0733 0.1876 0.0000
vt 0.1055 0.1436 0.0000
vt 0.1436 0.1055 0.0000
vt 0.1875 0.0733 0.0000
vt 0.2374 0.0469 0.0000
vt 0.2930 0.0264 0.0000
vt 0.3546 0.0117 0.0000
vt 0.4220 0.0029 0.0000
vt 0.4952 0.0000 0.0000
vt 0.0000 0.0000 0.0000
vt 0.5048 0.0000 0.0000
vt 0.5780 0.0029 0.0000
vt 0.6454 0.0117 0.0000
vt 0.7070 0.0264 0.0000
vt 0.7626 0.0469 0.0000
vt 0.8125 0.0733 0.0000
vt 0.8564 0.1055 0.0000
vt 0.8945 0.1436 0.0000
vt 0.9267 0.1876 0.0000
vt 0.9531 0.2374 0.0000
vt 0.9736 0.2931 0.0000
vt 0.9883 0.3547 0.0000
vt 0.9971 0.4221 0.0000
vt 1.0000 0.4954 0.0000
vt 1.0000 1.0000 0.0000
vt 0.2537 1.0000 0.0000
vt 0.2162 0.9985 0.0000
vt 0.1817 0.9941 0.0000
vt 0.1501 0.9868 0.0000
vt 0.1216 0.9765 0.0000
vt 0.0961 0.9633 0.0000
vt 0.0736 0.9471 0.0000
vt 0.0540 0.9281 0.0000
vt 0.0375 0.9060 0.0000
vt 0.0240 0.8811 0.0000
vt 0.0135 0.8532 0.0000
vt 0.0060 0.8224 0.0000
vt 0.0015 0.7886 0.0000
vt 0.0000 0.7519 0.0000
vt 0.5048 1.0000 0.0000
vt 0.4954 0.0000 0.0000
vt 0.4954 1.0000 0.0000
vt 0.7463 0.0000 0.0000
vt 0.2481 0.0000 0.0000
vt 0.2481 1.0000 0.0000
vt 0.0778 1.0000 0.0000
vt 0.0636 1.0000 0.0000
vt 0.0636 0.0000 0.0000
vt 0.0778 0.0000 0.0000
vt 0.0920 1.0000 0.0000
vt 0.0920 0.0000 0.0000
vt 0.1062 1.0000 0.0000
vt 0.1062 0.0000 0.0000
vt 0.1204 1.0000 0.0000
vt 0.1204 0.0000 0.0000
vt 0.1346 1.0000 0.0000
vt 0.1346 0.0000 0.0000
vt 0.1488 1.0000 0.0000
vt 0.1488 0.0000 0.0000
vt 0.1630 1.0000 0.0000
vt 0.1630 0.0000 0.0000
vt 0.1772 1.0000 0.0000
vt 0.1772 0.0000 0.0000
vt 0.1913 1.0000 0.0000
vt 0.1913 0.0000 0.0000
vt 0.2055 1.0000 0.0000
vt 0.2055 0.0000 0.0000
vt 0.2197 1.0000 0.0000
vt 0.2197 0.0000 0.0000
vt 0.2339 1.0000 0.0000
vt 0.2339 0.0000 0.0000
vt 0.1527 1.0000 0.0000
vt 0.1242 1.0000 0.0000
vt 0.1242 0.0000 0.0000
vt 0.1527 0.0000 0.0000
vt 0.1813 1.0000 0.0000
vt 0.1813 0.0000 0.0000
vt 0.2098 1.0000 0.0000
vt 0.2098 0.0000 0.0000
vt 0.2384 1.0000 0.0000
vt 0.2384 0.0000 0.0000
vt 0.2669 1.0000 0.0000
vt 0.2669 0.0000 0.0000
vt 0.2955 1.0000 0.0000
vt 0.2955 0.0000 0.0000
vt 0.3241 1.0000 0.0000
vt 0.3241 0.0000 0.0000
vt 0.3526 1.0000 0.0000
vt 0.3526 0.0000 0.0000
vt 0.3812 1.0000 0.0000
vt 0.3812 0.0000 0.0000
vt 0.4097 1.0000 0.0000
vt 0.4097 0.0000 0.0000
vt 0.4383 1.0000 0.0000
vt 0.4383 0.0000 0.0000
vt 0.4668 1.0000 0.0000
vt 0.4668 0.0000 0.0000
# 118 texture coords

g Box007
usemtl wire_214229166
s 1
f 1/1/1 2/2/2 3/3/3 
f 1/1/1 3/3/3 4/4/4 
f 1/1/1 4/4/4 5/5/5 
f 1/1/1 5/5/5 6/6/6 
f 1/1/1 6/6/6 7/7/7 
f 1/1/1 7/7/7 8/8/8 
f 1/1/1 8/8/8 9/9/9 
f 1/1/1 9/9/9 10/10/10 
f 1/1/1 10/10/10 11/11/11 
f 1/1/1 11/11/11 12/12/12 
f 1/1/1 12/12/12 13/13/13 
f 1/1/1 13/13/13 14/14/14 
f 1/1/1 14/14/14 15/15/15 
f 1/1/1 15/15/15 16/16/16 
f 16/16/16 17/17/17 18/18/17 
f 16/16/16 18/18/17 19/19/17 
f 16/16/16 19/19/17 20/20/17 
f 16/16/16 20/20/17 21/21/17 
f 16/16/16 21/21/17 22/22/17 
f 16/16/16 22/22/17 23/23/17 
f 16/16/16 23/23/17 24/24/17 
f 16/16/16 24/24/17 25/25/17 
f 16/16/16 25/25/17 26/26/17 
f 16/16/16 26/26/17 27/27/17 
f 16/16/16 27/27/17 28/28/17 
f 16/16/16 28/28/17 29/29/17 
f 16/16/16 29/29/17 30/30/17 
f 1/1/1 16/16/16 30/30/17 
f 31/31/18 32/32/19 33/33/19 
f 31/31/18 33/33/19 34/34/19 
f 31/31/18 34/34/19 35/35/19 
f 31/31/18 35/35/19 36/36/19 
f 31/31/18 36/36/19 37/37/19 
f 31/31/18 37/37/19 38/38/19 
f 31/31/18 38/38/19 39/39/19 
f 31/31/18 39/39/19 40/40/19 
f 31/31/18 40/40/19 41/41/19 
f 31/31/18 41/41/19 42/42/19 
f 31/31/18 42/42/19 43/43/19 
f 31/31/18 43/43/19 44/44/19 
f 31/31/18 44/44/19 45/45/19 
f 31/31/18 45/45/19 46/46/20 
f 46/46/20 47/47/21 48/48/22 
f 46/46/20 48/48/22 49/49/23 
f 46/46/20 49/49/23 50/50/24 
f 46/46/20 50/50/24 51/51/25 
f 46/46/20 51/51/25 52/52/26 
f 46/46/20 52/52/26 53/53/27 
f 46/46/20 53/53/27 54/54/28 
f 46/46/20 54/54/28 55/55/29 
f 46/46/20 55/55/29 56/56/30 
f 46/46/20 56/56/30 57/57/31 
f 46/46/20 57/57/31 58/58/32 
f 46/46/20 58/58/32 59/59/33 
f 46/46/20 59/59/33 60/60/34 
f 31/31/18 46/46/20 60/60/34 
s 2
f 1/31/35 30/32/36 32/61/36 
f 32/61/36 31/16/35 1/31/35 
f 17/62/37 16/1/38 46/46/38 
f 46/46/38 45/63/37 17/62/37 
s 4
f 16/31/39 15/64/40 47/15/40 
f 47/15/40 46/16/39 16/31/39 
f 2/65/41 1/1/42 31/46/42 
f 31/46/42 60/66/41 2/65/41 
f 48/67/43 47/68/40 15/69/40 
f 15/69/40 14/70/43 48/67/43 
f 49/71/44 48/67/43 14/70/43 
f 14/70/43 13/72/44 49/71/44 
f 50/73/45 49/71/44 13/72/44 
f 13/72/44 12/74/45 50/73/45 
f 51/75/46 50/73/45 12/74/45 
f 12/74/45 11/76/46 51/75/46 
f 52/77/47 51/75/46 11/76/46 
f 11/76/46 10/78/47 52/77/47 
f 53/79/48 52/77/47 10/78/47 
f 10/78/47 9/80/48 53/79/48 
f 54/81/49 53/79/48 9/80/48 
f 9/80/48 8/82/49 54/81/49 
f 55/83/50 54/81/49 8/82/49 
f 8/82/49 7/84/50 55/83/50 
f 56/85/51 55/83/50 7/84/50 
f 7/84/50 6/86/51 56/85/51 
f 57/87/52 56/85/51 6/86/51 
f 6/86/51 5/88/52 57/87/52 
f 58/89/53 57/87/52 5/88/52 
f 5/88/52 4/90/53 58/89/53 
f 59/91/54 58/89/53 4/90/53 
f 4/90/53 3/92/54 59/91/54 
f 60/66/41 59/91/54 3/92/54 
f 3/92/54 2/65/41 60/66/41 
s 2
f 33/93/55 32/94/36 30/95/36 
f 30/95/36 29/96/55 33/93/55 
f 34/97/56 33/93/55 29/96/55 
f 29/96/55 28/98/56 34/97/56 
f 35/99/57 34/97/56 28/98/56 
f 28/98/56 27/100/57 35/99/57 
f 36/101/58 35/99/57 27/100/57 
f 27/100/57 26/102/58 36/101/58 
f 37/103/59 36/101/58 26/102/58 
f 26/102/58 25/104/59 37/103/59 
f 38/105/60 37/103/59 25/104/59 
f 25/104/59 24/106/60 38/105/60 
f 39/107/61 38/105/60 24/106/60 
f 24/106/60 23/108/61 39/107/61 
f 40/109/62 39/107/61 23/108/61 
f 23/108/61 22/110/62 40/109/62 
f 41/111/63 40/109/62 22/110/62 
f 22/110/62 21/112/63 41/111/63 
f 42/113/64 41/111/63 21/112/63 
f 21/112/63 20/114/64 42/113/64 
f 43/115/65 42/113/64 20/114/64 
f 20/114/64 19/116/65 43/115/65 
f 44/117/66 43/115/65 19/116/65 
f 19/116/65 18/118/66 44/117/66 
f 45/63/37 44/117/66 18/118/66 
f 18/118/66 17/62/37 45/63/37 
# 116 faces

